<svg width="48" height="68" viewBox="0 0 48 68" fill="none" xmlns="http://www.w3.org/2000/svg">
<path d="M24 4.80005C14.4 4.80005 7.19995 12 7.19995 21.6C7.19995 33.6 24 52.8 24 52.8C24 52.8 40.8 33.6 40.8 21.6C40.8 12 33.6 4.80005 24 4.80005Z" fill="url(#paint0_linear_20_533)"/>
<path d="M24.0001 30.24C28.7718 30.24 32.6401 26.3717 32.6401 21.6C32.6401 16.8282 28.7718 12.96 24.0001 12.96C19.2284 12.96 15.3601 16.8282 15.3601 21.6C15.3601 26.3717 19.2284 30.24 24.0001 30.24Z" fill="white"/>
<path d="M21.5999 17.76V20.64M21.5999 20.64C21.1199 20.64 20.6399 20.4 20.6399 19.68V17.76M21.5999 20.64C22.0799 20.64 22.5599 20.4 22.5599 19.68V17.76M21.5999 20.64V25.44" stroke="#4F46E5" stroke-width="0.72" stroke-linecap="round" stroke-linejoin="round"/>
<path d="M26.3999 20.64V17.76C26.3999 17.76 27.3599 18.24 27.3599 19.68C27.3599 21.12 26.3999 20.64 26.3999 20.64ZM26.3999 20.64C26.3999 21.36 26.8799 21.6 27.3599 21.6C26.8799 21.6 26.3999 21.84 26.3999 22.56V25.44" stroke="#4F46E5" stroke-width="0.72" stroke-linecap="round" stroke-linejoin="round"/>
<path opacity="0.3" d="M19.2001 21.6C21.3209 21.6 23.0401 19.451 23.0401 16.8C23.0401 14.149 21.3209 12 19.2001 12C17.0793 12 15.3601 14.149 15.3601 16.8C15.3601 19.451 17.0793 21.6 19.2001 21.6Z" fill="white"/>
<path opacity="0.6" d="M23.9999 32.16C29.8321 32.16 34.5599 27.4322 34.5599 21.6C34.5599 15.7679 29.8321 11.04 23.9999 11.04C18.1678 11.04 13.4399 15.7679 13.4399 21.6C13.4399 27.4322 18.1678 32.16 23.9999 32.16Z" stroke="#FBBF24" stroke-width="1.44"/>
<defs>
<linearGradient id="paint0_linear_20_533" x1="1687.2" y1="4.80005" x2="1687.2" y2="4804.8" gradientUnits="userSpaceOnUse">
<stop stop-color="#6366F1"/>
<stop offset="1" stop-color="#4F46E5"/>
</linearGradient>
</defs>
</svg>
