<svg width="48" height="67" viewBox="0 0 48 67" fill="none" xmlns="http://www.w3.org/2000/svg">
<path d="M24 4.78564C14.4 4.78564 7.19995 11.9642 7.19995 21.5356C7.19995 33.4999 24 52.6428 24 52.6428C24 52.6428 40.8 33.4999 40.8 21.5356C40.8 11.9642 33.6 4.78564 24 4.78564Z" fill="url(#paint0_linear_20_542)"/>
<path d="M24.0001 30.15C28.7718 30.15 32.6401 26.2932 32.6401 21.5357C32.6401 16.7781 28.7718 12.9214 24.0001 12.9214C19.2284 12.9214 15.3601 16.7781 15.3601 21.5357C15.3601 26.2932 19.2284 30.15 24.0001 30.15Z" fill="white"/>
<path d="M21.5999 17.707V20.5785M21.5999 20.5785C21.1199 20.5785 20.6399 20.3392 20.6399 19.6213V17.707M21.5999 20.5785C22.0799 20.5785 22.5599 20.3392 22.5599 19.6213V17.707M21.5999 20.5785V25.3642" stroke="#6366F1" stroke-width="0.6" stroke-linecap="round" stroke-linejoin="round"/>
<path d="M26.3999 20.5785V17.707C26.3999 17.707 27.3599 18.1856 27.3599 19.6213C27.3599 21.057 26.3999 20.5785 26.3999 20.5785ZM26.3999 20.5785C26.3999 21.2963 26.8799 21.5356 27.3599 21.5356C26.8799 21.5356 26.3999 21.7749 26.3999 22.4927V25.3642" stroke="#6366F1" stroke-width="0.6" stroke-linecap="round" stroke-linejoin="round"/>
<path opacity="0.3" d="M19.2001 21.5358C21.3209 21.5358 23.0401 19.3931 23.0401 16.7501C23.0401 14.107 21.3209 11.9644 19.2001 11.9644C17.0793 11.9644 15.3601 14.107 15.3601 16.7501C15.3601 19.3931 17.0793 21.5358 19.2001 21.5358Z" fill="white"/>
<defs>
<linearGradient id="paint0_linear_20_542" x1="1687.2" y1="4.78564" x2="1687.2" y2="4790.5" gradientUnits="userSpaceOnUse">
<stop stop-color="#818CF8"/>
<stop offset="1" stop-color="#6366F1"/>
</linearGradient>
</defs>
</svg>
