<svg width="100" height="100" viewBox="0 0 100 100" fill="none" xmlns="http://www.w3.org/2000/svg">
<path d="M0 6C0 2.68629 2.68629 0 6 0H94C97.3137 0 100 2.68629 100 6V94C100 97.3137 97.3137 100 94 100H6C2.68629 100 0 97.3137 0 94V6Z" fill="url(#paint0_linear_17_647)"/>
<path d="M50 71C68.2254 71 83 66.9706 83 62C83 57.0294 68.2254 53 50 53C31.7746 53 17 57.0294 17 62C17 66.9706 31.7746 71 50 71Z" fill="white"/>
<path d="M50 71C68.2254 71 83 66.9706 83 62C83 57.0294 68.2254 53 50 53C31.7746 53 17 57.0294 17 62C17 66.9706 31.7746 71 50 71Z" fill="url(#paint1_linear_17_647)"/>
<path d="M50 66C67.1208 66 81 62.866 81 59C81 55.134 67.1208 52 50 52C32.8792 52 19 55.134 19 59C19 62.866 32.8792 66 50 66Z" fill="#F8F8F8"/>
<path d="M19 59C19 59 25 55 50 55C75 55 81 59 81 59" stroke="#E8E8E8" stroke-width="1.5" stroke-linecap="round"/>
<path d="M49 64C62.8071 64 74 62.6569 74 61C74 59.3431 62.8071 58 49 58C35.1929 58 24 59.3431 24 61C24 62.6569 35.1929 64 49 64Z" fill="#C0C0C0"/>
<path d="M49 64C62.8071 64 74 62.6569 74 61C74 59.3431 62.8071 58 49 58C35.1929 58 24 59.3431 24 61C24 62.6569 35.1929 64 49 64Z" fill="url(#paint2_linear_17_647)"/>
<path opacity="0.7" d="M49 62C61.7025 62 72 61.1046 72 60C72 58.8954 61.7025 58 49 58C36.2975 58 26 58.8954 26 60C26 61.1046 36.2975 62 49 62Z" fill="#E0E0E0"/>
<path d="M24 60C24 60 27 35 49 35C71 35 74 60 74 60H24Z" fill="#E0E0E0"/>
<path opacity="0.6" d="M29 55C29 55 31 40 49 40C67 40 69 55 69 55" stroke="#F5F5F5" stroke-width="2" stroke-linecap="round"/>
<path opacity="0.4" d="M34 50C34 50 37 42 49 42C61 42 64 50 64 50" stroke="white" stroke-width="1.5" stroke-linecap="round"/>
<path opacity="0.5" d="M44 47C45.1046 47 46 46.1046 46 45C46 43.8954 45.1046 43 44 43C42.8954 43 42 43.8954 42 45C42 46.1046 42.8954 47 44 47Z" fill="white"/>
<path opacity="0.4" d="M54 43.5C54.8284 43.5 55.5 42.8284 55.5 42C55.5 41.1716 54.8284 40.5 54 40.5C53.1716 40.5 52.5 41.1716 52.5 42C52.5 42.8284 53.1716 43.5 54 43.5Z" fill="white"/>
<path opacity="0.3" d="M49 52.5C50.3807 52.5 51.5 51.3807 51.5 50C51.5 48.6193 50.3807 47.5 49 47.5C47.6193 47.5 46.5 48.6193 46.5 50C46.5 51.3807 47.6193 52.5 49 52.5Z" fill="white"/>
<path opacity="0.4" d="M59 49.5C59.8284 49.5 60.5 48.8284 60.5 48C60.5 47.1716 59.8284 46.5 59 46.5C58.1716 46.5 57.5 47.1716 57.5 48C57.5 48.8284 58.1716 49.5 59 49.5Z" fill="white"/>
<path d="M47 33V36H51V33C51 31 47 31 47 33Z" fill="#D0D0D0"/>
<path d="M47 33V36H51V33C51 31 47 31 47 33Z" fill="url(#paint3_linear_17_647)"/>
<path d="M49 34.5C50.1046 34.5 51 33.8284 51 33C51 32.1716 50.1046 31.5 49 31.5C47.8954 31.5 47 32.1716 47 33C47 33.8284 47.8954 34.5 49 34.5Z" fill="#E8E8E8"/>
<path d="M49 34C51.7614 34 54 32.6569 54 31C54 29.3431 51.7614 28 49 28C46.2386 28 44 29.3431 44 31C44 32.6569 46.2386 34 49 34Z" fill="url(#paint4_radial_17_647)"/>
<defs>
<linearGradient id="paint0_linear_17_647" x1="0" y1="0" x2="100" y2="100" gradientUnits="userSpaceOnUse">
<stop stop-color="#615FFF"/>
<stop offset="1" stop-color="#4F39F6"/>
</linearGradient>
<linearGradient id="paint1_linear_17_647" x1="3977" y1="1241" x2="3977" y2="1565" gradientUnits="userSpaceOnUse">
<stop stop-color="white"/>
<stop offset="1" stop-color="#E0E0E0"/>
</linearGradient>
<linearGradient id="paint2_linear_17_647" x1="3024" y1="400" x2="3024" y2="436" gradientUnits="userSpaceOnUse">
<stop stop-color="#D0D0D0"/>
<stop offset="0.5" stop-color="#B0B0B0"/>
<stop offset="1" stop-color="#D0D0D0"/>
</linearGradient>
<linearGradient id="paint3_linear_17_647" x1="287" y1="166.5" x2="287" y2="189" gradientUnits="userSpaceOnUse">
<stop stop-color="#E8E8E8"/>
<stop offset="1" stop-color="#C0C0C0"/>
</linearGradient>
<radialGradient id="paint4_radial_17_647" cx="0" cy="0" r="1" gradientUnits="userSpaceOnUse" gradientTransform="translate(644 238) scale(5 3)">
<stop stop-color="#E0E0E0"/>
<stop offset="1" stop-color="#A0A0A0"/>
</radialGradient>
</defs>
</svg>
